<svg width="149" height="182" viewBox="0 0 149 182" fill="none" xmlns="http://www.w3.org/2000/svg">
<path d="M247.54 100.39L247.394 101.018L246.838 101.406C246.564 101.502 246.2 101.582 245.751 101.646C245.298 101.711 244.685 101.745 243.912 101.745C243.266 101.745 242.717 101.711 242.264 101.646C241.815 101.582 241.452 101.502 241.177 101.406L240.599 101.018L240.43 100.39V85.1496H193.306V100.39L193.137 101.018L192.556 101.406C192.282 101.502 191.921 101.582 191.468 101.646C191.016 101.711 190.452 101.745 189.775 101.745C189.032 101.745 188.436 101.711 187.985 101.646C187.533 101.582 187.17 101.502 186.896 101.406L186.316 101.018L186.147 100.39V80.506C186.082 79.6679 186.212 79.0551 186.536 78.6675C186.856 78.2827 187.357 78.0881 188.035 78.0881H191.663C192.565 76.927 193.403 75.7413 194.179 74.5317C194.951 73.3208 195.694 71.8953 196.402 70.2509C197.113 68.6061 197.807 66.6044 198.484 64.2521C199.161 61.8962 199.829 58.9869 200.492 55.5182C201.153 52.0512 201.822 47.9154 202.499 43.1083C203.176 38.3044 203.885 32.5957 204.627 25.9831C204.821 24.8224 205.151 23.9607 205.619 23.3968C206.087 22.8304 206.755 22.5502 207.627 22.5502H236.509C237.38 22.5502 238.082 22.8304 238.612 23.3968C239.145 23.9607 239.413 24.8073 239.413 25.9343V78.0881H245.652C246.33 78.0881 246.813 78.2887 247.106 78.6917C247.394 79.0955 247.54 79.7178 247.54 80.5548V100.39ZM231.092 29.6608H212.514C211.836 35.6279 211.165 40.836 210.506 45.2853C209.844 49.7391 209.2 53.6067 208.572 56.8984C207.94 60.1866 207.303 62.968 206.66 65.2437C206.013 67.517 205.36 69.4501 204.701 71.0485C204.039 72.6435 203.362 73.9921 202.669 75.0887C201.976 76.1847 201.258 77.1861 200.516 78.0881H231.092V29.6608Z" fill="#2A3892"/>
<path d="M310.48 53.1237C310.48 58.1857 309.883 62.7504 308.691 66.8147C307.497 70.88 305.717 74.3384 303.345 77.1927C300.974 80.0471 298 82.2402 294.417 83.7701C290.84 85.3042 286.661 86.0706 281.891 86.0706C277.179 86.0706 273.108 85.3687 269.674 83.964C266.237 82.5631 263.399 80.5212 261.159 77.8459C258.918 75.1694 257.249 71.8469 256.153 67.8805C255.056 63.9114 254.508 59.3468 254.508 54.1885C254.508 49.2524 255.102 44.7713 256.297 40.7379C257.489 36.7064 259.281 33.2796 261.668 30.4581C264.054 27.638 267.035 25.4606 270.617 23.927C274.198 22.3966 278.374 21.6296 283.146 21.6296C287.76 21.6296 291.773 22.3226 295.194 23.7079C298.612 25.0967 301.458 27.12 303.734 29.7808C306.006 32.4416 307.699 35.7308 308.811 39.651C309.923 43.568 310.48 48.0605 310.48 53.1237ZM301.676 53.7052C301.676 50.1575 301.362 46.8597 300.734 43.8114C300.106 40.7621 299.058 38.1175 297.592 35.8754C296.127 33.6365 294.168 31.8848 291.723 30.6273C289.275 29.3681 286.245 28.7402 282.638 28.7402C279.03 28.7402 276.003 29.418 273.554 30.7726C271.106 32.1271 269.117 33.9353 267.589 36.1923C266.059 38.4501 264.963 41.0862 264.3 44.1002C263.642 47.1187 263.312 50.2877 263.312 53.6075C263.312 57.2843 263.617 60.671 264.23 63.7663C264.842 66.8645 265.872 69.5314 267.321 71.773C268.772 74.0144 270.712 75.7575 273.145 76.9993C275.577 78.2395 278.629 78.8618 282.3 78.8618C285.94 78.8618 289.001 78.1845 291.481 76.8298C293.962 75.4737 295.958 73.645 297.473 71.339C298.985 69.032 300.066 66.3626 300.709 63.3313C301.353 60.3018 301.676 57.0901 301.676 53.7052Z" fill="#2A3892"/>
<path d="M416.67 26.1292C416.67 26.742 416.637 27.2741 416.575 27.7266C416.508 28.1767 416.406 28.5401 416.259 28.8142L415.725 29.4174L415.027 29.6108H397.415V83.894L397.221 84.5712C397.092 84.7648 396.867 84.9159 396.546 85.0293C396.223 85.1436 395.795 85.2389 395.262 85.3191C394.729 85.3997 394.062 85.4422 393.254 85.4422C392.482 85.4422 391.819 85.3997 391.271 85.3191C390.723 85.2389 390.289 85.1436 389.966 85.0293C389.642 84.9159 389.418 84.7648 389.288 84.5712L389.094 83.894V29.6108H371.485L370.784 29.4174L370.276 28.8142C370.146 28.5401 370.041 28.1767 369.961 27.7266C369.881 27.2741 369.842 26.742 369.842 26.1292C369.842 25.5164 369.881 24.9767 369.961 24.509C370.041 24.0409 370.146 23.6619 370.276 23.3721C370.405 23.0798 370.574 22.8702 370.784 22.7411L371.485 22.5472H415.027L415.725 22.7411C415.938 22.8702 416.113 23.0798 416.259 23.3721C416.406 23.6619 416.508 24.0409 416.575 24.509C416.637 24.9767 416.67 25.5164 416.67 26.1292Z" fill="#2A3892"/>
<path d="M478.159 53.1237C478.159 58.1857 477.562 62.7504 476.371 66.8147C475.175 70.88 473.396 74.3384 471.024 77.1927C468.653 80.0471 465.678 82.2402 462.097 83.7701C458.518 85.3042 454.34 86.0706 449.569 86.0706C444.858 86.0706 440.787 85.3687 437.353 83.964C433.917 82.5631 431.077 80.5212 428.838 77.8459C426.596 75.1694 424.927 71.8469 423.831 67.8805C422.735 63.9114 422.187 59.3468 422.187 54.1885C422.187 49.2524 422.781 44.7713 423.976 40.7379C425.168 36.7064 426.961 33.2796 429.347 30.4581C431.734 27.638 434.714 25.4606 438.295 23.927C441.877 22.3966 446.053 21.6296 450.826 21.6296C455.436 21.6296 459.452 22.3226 462.873 23.7079C466.291 25.0967 469.137 27.12 471.412 29.7808C473.685 32.4416 475.379 35.7308 476.49 39.651C477.602 43.568 478.159 48.0605 478.159 53.1237ZM469.355 53.7052C469.355 50.1575 469.041 46.8597 468.413 43.8114C467.785 40.7621 466.738 38.1175 465.272 35.8754C463.806 33.6365 461.848 31.8848 459.399 30.6273C456.954 29.3681 453.924 28.7402 450.318 28.7402C446.708 28.7402 443.681 29.418 441.234 30.7726C438.785 32.1271 436.796 33.9353 435.266 36.1923C433.738 38.4501 432.642 41.0862 431.98 44.1002C431.321 47.1187 430.991 50.2877 430.991 53.6075C430.991 57.2843 431.297 60.671 431.909 63.7663C432.522 66.8645 433.55 69.5314 435.001 71.773C436.451 74.0144 438.391 75.7575 440.825 76.9993C443.254 78.2395 446.309 78.8618 449.98 78.8618C453.618 78.8618 456.677 78.1845 459.159 76.8298C461.638 75.4737 463.636 73.645 465.152 71.339C466.664 69.032 467.744 66.3626 468.388 63.3313C469.032 60.3018 469.355 57.0901 469.355 53.7052Z" fill="#2A3892"/>
<path d="M529.78 40.8837C529.78 44.0122 529.262 46.8338 528.231 49.3493C527.199 51.8651 525.724 54.0119 523.806 55.7857C521.887 57.5591 519.532 58.9297 516.741 59.8968C513.951 60.8632 510.623 61.3466 506.751 61.3466H499.641V83.8917L499.422 84.569C499.277 84.7641 499.049 84.9173 498.745 85.028C498.436 85.142 498.021 85.2379 497.488 85.3209C496.955 85.4011 496.284 85.4414 495.481 85.4414C494.674 85.4414 494.002 85.4011 493.473 85.3209C492.94 85.2379 492.512 85.142 492.188 85.028C491.869 84.9173 491.641 84.7641 491.514 84.569L491.32 83.8917V26.1269C491.32 24.8403 491.659 23.9193 492.337 23.3713C493.011 22.8231 493.768 22.549 494.609 22.549H508.011C509.363 22.549 510.663 22.6039 511.903 22.7184C513.144 22.8318 514.614 23.0726 516.307 23.442C518 23.815 519.725 24.5079 521.484 25.5237C523.239 26.5397 524.732 27.79 525.958 29.2745C527.184 30.7552 528.126 32.4741 528.788 34.4257C529.447 36.3759 529.78 38.5314 529.78 40.8837ZM521.025 41.561C521.025 39.0145 520.548 36.884 519.596 35.1745C518.645 33.4657 517.468 32.1939 516.064 31.3532C514.663 30.5152 513.209 29.9826 511.709 29.7573C510.21 29.5331 508.75 29.4187 507.333 29.4187H499.641V54.5259H507.14C509.656 54.5259 511.743 54.2053 513.403 53.5593C515.066 52.9152 516.458 52.0197 517.589 50.8732C518.718 49.7283 519.571 48.3576 520.153 46.7626C520.732 45.1648 521.025 43.4311 521.025 41.561Z" fill="#2A3892"/>
<path d="M575.186 17.4392C575.186 19.9025 574.727 22.2096 573.812 24.3562C572.895 26.505 571.641 28.3657 570.049 29.9421C568.458 31.5218 566.579 32.766 564.417 33.6832C562.256 34.6014 559.939 35.0574 557.476 35.0574C554.923 35.0574 552.573 34.614 550.424 33.7271C548.277 32.8427 546.429 31.6266 544.883 30.0769C543.335 28.5313 542.128 26.6931 541.257 24.5584C540.384 22.4252 539.947 20.0814 539.947 17.5291C539.947 15.0647 540.406 12.7678 541.324 10.6361C542.239 8.50292 543.492 6.64903 545.087 5.06858C546.676 3.49223 548.549 2.25451 550.694 1.35211C552.845 0.453091 555.163 7.83121e-06 557.658 7.83121e-06C560.21 7.83121e-06 562.56 0.437006 564.709 1.30936C566.856 2.18065 568.704 3.38758 570.252 4.93621C571.798 6.48216 573.009 8.32054 573.88 10.4548C574.749 12.589 575.186 14.9171 575.186 17.4392ZM571.13 17.7104C571.13 15.5762 570.792 13.6391 570.117 11.8959C569.44 10.1564 568.5 8.66026 567.299 7.41244C566.098 6.16871 564.672 5.21369 563.019 4.55111C561.369 3.89298 559.579 3.56034 557.658 3.56034C555.584 3.56034 553.716 3.92022 552.047 4.64128C550.381 5.36502 548.946 6.35325 547.745 7.616C546.544 8.8784 545.62 10.3413 544.974 12.0103C544.326 13.6759 544.003 15.4558 544.003 17.35C544.003 19.453 544.342 21.375 545.019 23.1176C545.694 24.8582 546.633 26.3545 547.834 27.6016C549.035 28.8453 550.464 29.8094 552.115 30.4843C553.768 31.1614 555.554 31.4976 557.476 31.4976C559.551 31.4976 561.427 31.1306 563.111 30.395C564.793 29.6583 566.225 28.6665 567.413 27.4203C568.599 26.1724 569.516 24.7156 570.163 23.0501C570.806 21.3812 571.13 19.6012 571.13 17.7104ZM565.812 25.9543L565.744 26.293L565.408 26.5171C565.227 26.5635 564.971 26.6003 564.642 26.6316C564.31 26.6624 563.86 26.6781 563.29 26.6781C562.778 26.6781 562.366 26.662 562.052 26.6316C561.734 26.6003 561.48 26.5479 561.285 26.4748L560.835 26.157L560.587 25.594L559.641 22.4862C559.28 21.3751 558.852 20.6014 558.356 20.1641C557.861 19.7306 557.116 19.5115 556.127 19.5115H554.907V25.8217C554.907 26.1508 554.782 26.3762 554.526 26.4954C554.27 26.616 553.676 26.6781 552.746 26.6781C551.816 26.6781 551.2 26.616 550.898 26.4954C550.6 26.3762 550.448 26.1508 550.448 25.8217V9.64497C550.448 8.98328 550.612 8.46522 550.944 8.09028C551.274 7.71375 551.77 7.52637 552.432 7.52637H557.611C558.813 7.52637 559.872 7.63062 560.789 7.84039C561.704 8.05355 562.486 8.38262 563.133 8.83204C563.776 9.28519 564.266 9.84553 564.596 10.5227C564.925 11.197 565.092 12.0043 565.092 12.934C565.092 14.3747 564.701 15.4961 563.921 16.2903C563.139 17.0855 562.089 17.6484 560.768 17.981C561.488 18.2214 562.163 18.6245 562.794 19.198C563.425 19.7669 563.968 20.6237 564.417 21.7661L565.498 24.6486C565.707 25.3405 565.812 25.7755 565.812 25.9543ZM560.226 13.4723C560.226 13.1433 560.18 12.8293 560.091 12.5269C560 12.2286 559.829 11.964 559.573 11.7386C559.317 11.5144 558.979 11.3417 558.56 11.2222C558.138 11.1017 557.611 11.0398 556.98 11.0398H554.907V16.0877H556.891C558.153 16.0877 559.025 15.8467 559.505 15.3665C559.986 14.8867 560.226 14.2544 560.226 13.4723Z" fill="#62A6D5"/>
<path d="M233.672 179.294C231.95 179.91 230.02 180.529 227.818 180.991C225.616 181.457 223.208 181.688 220.596 181.688C216.085 181.688 212.011 180.967 208.381 179.525C204.747 178.085 201.649 175.959 199.089 173.148C196.531 170.337 194.56 166.865 193.183 162.733C191.804 158.601 191.113 153.843 191.113 148.46C191.113 142.938 191.856 138.017 193.343 133.697C194.828 129.376 196.916 125.715 199.601 122.716C202.283 119.713 205.498 117.425 209.239 115.848C212.978 114.271 217.123 113.48 221.671 113.48C223.676 113.48 225.631 113.625 227.522 114.023C237.204 116.049 241.251 122.571 242.273 124.092C242.655 124.662 243.25 126.078 243.48 126.506C243.883 127.258 238.449 131.64 237.55 130.972C236.65 130.303 233.663 124.375 228.824 122.201C226.873 121.324 224.353 121.197 221.511 121.197C218.417 121.197 215.599 121.789 213.061 122.97C210.523 124.154 208.355 125.897 206.557 128.191C204.755 130.491 203.364 133.293 202.372 136.601C201.38 139.911 200.888 143.693 200.888 147.946C200.888 152.161 201.365 155.89 202.32 159.133C203.271 162.373 204.638 165.083 206.422 167.257C208.202 169.437 210.388 171.082 212.981 172.197C215.571 173.311 218.506 173.868 221.782 173.868C224.55 173.868 226.99 173.598 229.04 172.892C235.784 170.568 238.596 165.018 239.532 164.366C240.468 163.715 244.407 166.999 244.705 167.423C245.894 169.123 239.532 177.194 233.672 179.294Z" fill="#2A3892"/>
<path d="M308.2 179.578L307.99 180.271C307.851 180.461 307.605 180.624 307.258 180.761C306.909 180.898 306.448 181.001 305.871 181.068C305.295 181.139 304.572 181.173 303.697 181.173C302.86 181.173 302.145 181.139 301.554 181.068C300.959 181.001 300.498 180.898 300.165 180.761C299.833 180.624 299.599 180.461 299.46 180.271L299.251 179.578C299.251 179.578 298.708 129.724 298.78 128.797H298.675C298.395 129.278 298.09 130.473 297.757 131.021C297.424 131.569 269.081 179.532 269.081 179.532L268.453 180.252C268.243 180.459 267.973 180.622 267.64 180.741C267.308 180.862 263.587 181.044 263.135 181.096C262.678 181.145 262.103 181.173 261.407 181.173C260.604 181.173 259.947 181.139 259.443 181.068C258.937 181.001 258.538 180.89 258.238 180.735C257.943 180.579 257.733 180.4 257.613 180.194C257.49 179.987 257.429 179.731 257.429 179.424L256.748 115.589L256.985 114.922C257.142 114.714 257.404 114.545 257.77 114.407C258.137 114.271 258.608 114.166 259.184 114.099C259.76 114.031 260.447 113.994 261.25 113.994C262.122 113.994 262.845 114.031 263.421 114.099C263.997 114.166 264.458 114.271 264.81 114.407C265.158 114.545 265.401 114.714 265.543 114.922L265.752 115.589C265.752 115.589 266.014 164.186 265.909 165.182L265.962 166.829C266.519 165.972 297.187 115.488 297.187 115.488L297.763 114.845C297.973 114.656 298.244 114.502 298.576 114.382C298.905 114.262 299.3 114.166 299.752 114.099C300.206 114.031 300.782 113.994 301.48 113.994C302.284 113.994 305 114.031 305.505 114.099C306.01 114.166 306.414 114.277 306.709 114.432C307.005 114.585 307.214 114.758 307.337 114.949C307.458 115.137 307.519 115.383 307.519 115.694L308.2 179.578Z" fill="#2A3892"/>
<path d="M509.902 179.578L509.692 180.271C509.554 180.461 509.307 180.624 508.959 180.761C508.611 180.898 508.149 181.001 507.573 181.068C506.997 181.139 506.274 181.173 505.399 181.173C504.561 181.173 503.847 181.139 503.256 181.068C502.662 181.001 502.2 180.898 501.868 180.761C501.535 180.624 501.3 180.461 501.162 180.271L500.953 179.578C500.953 179.578 500.411 129.724 500.481 128.797H500.376C500.096 129.278 499.792 130.473 499.459 131.021C499.127 131.569 470.783 179.532 470.783 179.532L470.155 180.252C469.946 180.459 469.674 180.622 469.341 180.741C469.009 180.862 465.289 181.044 464.836 181.096C464.381 181.145 463.805 181.173 463.109 181.173C462.305 181.173 461.649 181.139 461.144 181.068C460.639 181.001 460.239 180.89 459.94 180.735C459.644 180.579 459.434 180.4 459.315 180.194C459.192 179.987 459.13 179.731 459.13 179.424L458.449 115.589L458.687 114.922C458.844 114.714 459.105 114.545 459.472 114.407C459.838 114.271 460.309 114.166 460.885 114.099C461.462 114.031 462.148 113.994 462.951 113.994C463.823 113.994 464.546 114.031 465.122 114.099C465.699 114.166 466.16 114.271 466.511 114.407C466.86 114.545 467.103 114.714 467.244 114.922L467.454 115.589C467.454 115.589 467.716 164.186 467.611 165.182L467.664 166.829C468.221 165.972 498.889 115.488 498.889 115.488L499.465 114.845C499.675 114.656 499.945 114.502 500.278 114.382C500.608 114.262 501.002 114.166 501.455 114.099C501.907 114.031 502.483 113.994 503.182 113.994C503.986 113.994 506.702 114.031 507.207 114.099C507.712 114.166 508.115 114.277 508.411 114.432C508.707 114.585 508.916 114.758 509.039 114.949C509.159 115.137 509.221 115.383 509.221 115.694L509.902 179.578Z" fill="#2A3892"/>
<path d="M386.611 179.526L386.423 180.247C386.297 180.454 386.081 180.617 385.767 180.736C385.456 180.857 385.056 180.958 384.573 181.044C384.089 181.131 383.458 181.174 382.676 181.174C381.959 181.174 381.342 181.131 380.828 181.044C380.31 180.958 379.905 180.857 379.608 180.736C379.31 180.617 379.1 180.454 378.977 180.247L378.79 179.526V121.559H378.697L357.96 179.785L357.575 180.401C357.408 180.573 357.165 180.718 356.848 180.839C356.527 180.958 356.149 181.044 355.708 181.093C355.272 181.146 354.747 181.174 354.141 181.174C353.504 181.174 352.959 181.137 352.502 181.069C352.05 181.002 351.668 180.906 351.367 180.786C351.065 180.666 350.827 180.521 350.662 180.349L350.323 179.785L330.494 121.559H330.447V179.526L330.26 180.247C330.137 180.454 329.918 180.617 329.604 180.736C329.293 180.857 328.886 180.958 328.387 181.044C327.889 181.131 327.248 181.174 326.466 181.174C325.718 181.174 325.093 181.131 324.593 181.044C324.095 180.958 323.694 180.857 323.399 180.736C323.1 180.617 322.9 180.454 322.789 180.247L322.626 179.526V118.316C322.626 116.878 322.965 115.848 323.642 115.23C324.319 114.614 325.074 114.303 325.906 114.303H330.707C331.692 114.303 332.554 114.407 333.293 114.614C334.032 114.82 334.679 115.143 335.233 115.59C335.788 116.037 336.249 116.604 336.619 117.287C336.988 117.974 337.312 118.781 337.588 119.704L354.415 167.901H354.64L372.15 119.859C372.489 118.83 372.858 117.955 373.259 117.237C373.659 116.517 374.1 115.941 374.577 115.513C375.054 115.085 375.583 114.778 376.168 114.587C376.754 114.399 377.431 114.303 378.201 114.303H383.239C383.701 114.303 384.138 114.383 384.554 114.538C384.97 114.691 385.323 114.931 385.617 115.254C385.909 115.581 386.149 115.994 386.334 116.489C386.519 116.989 386.611 117.595 386.611 118.316V179.526Z" fill="#2A3892"/>
<path d="M448.069 179.474C448.069 179.782 448.004 180.041 447.875 180.247C447.746 180.454 447.526 180.623 447.222 180.762C446.917 180.897 439.964 180.83 439.625 180.657C439.286 180.487 439.027 180.272 438.849 180.016C438.673 179.758 426.95 160.031 425.9 158.559C421.292 152.101 415.562 150.413 413.625 150.413H410.142V179.526L409.951 180.247C409.822 180.454 409.594 180.617 409.274 180.734C408.951 180.857 408.522 180.959 407.989 181.045C407.457 181.128 406.788 181.171 405.982 181.171C405.208 181.171 404.547 181.128 403.998 181.045C403.45 180.959 403.016 180.857 402.693 180.734C402.37 180.617 402.144 180.454 402.015 180.247L401.821 179.526V115.591L402.015 114.922C402.144 114.717 402.37 114.553 402.693 114.433C403.016 114.313 403.45 114.211 403.998 114.124C404.547 114.039 405.208 113.995 405.982 113.995C406.788 113.995 407.457 114.039 407.989 114.124C408.522 114.211 408.951 114.313 409.274 114.433C409.594 114.553 409.822 114.717 409.951 114.922L410.142 115.591V142.801H413.625C415.562 142.801 417.255 142.551 418.706 142.056C420.156 141.557 421.44 140.132 422.552 139.136C423.663 138.142 437.98 116.785 437.98 116.785C438.63 115.554 439.409 115.233 439.772 115.19C440.502 115.104 446.261 114.95 446.569 115.086C446.874 115.225 447.077 115.396 447.172 115.6L447.388 116.53C447.388 116.909 447.388 118.018 446.689 119.203C446.689 119.203 431.8 140.562 430.897 141.643C429.995 142.724 429.01 143.617 427.948 144.319C426.882 145.022 425.687 145.579 424.366 145.991V146.093C425.881 146.675 427.227 147.353 428.406 148.125C429.583 148.896 430.67 149.847 431.671 150.98C432.671 152.111 433.588 153.474 434.429 155.07C435.267 156.662 447.127 176.853 447.127 176.853C447.543 177.72 447.909 178.163 447.973 178.523C448.038 178.883 448.069 179.2 448.069 179.474Z" fill="#2A3892"/>
<path d="M366 84.2033C366 84.4996 365.938 84.7456 365.816 84.9395C365.693 85.1367 365.483 85.3023 365.191 85.4319C364.898 85.5644 358.256 85.5 357.932 85.3342C357.606 85.171 357.359 84.9672 357.19 84.7213C357.021 84.4738 345.818 65.6216 344.817 64.2183C340.414 58.043 334.935 56.4322 333.087 56.4322H329.758V84.2522L329.573 84.9395C329.447 85.1367 329.231 85.2938 328.927 85.4072C328.616 85.5242 328.209 85.6204 327.701 85.7031C327.19 85.7836 326.552 85.8264 325.782 85.8264C325.041 85.8264 324.41 85.7836 323.885 85.7031C323.362 85.6204 322.946 85.5242 322.638 85.4072C322.331 85.2938 322.112 85.1367 321.989 84.9395L321.804 84.2522V23.1534L321.989 22.5149C322.112 22.3188 322.331 22.1616 322.638 22.0473C322.946 21.9338 323.362 21.8351 323.885 21.7514C324.41 21.6717 325.041 21.628 325.782 21.628C326.552 21.628 327.19 21.6717 327.701 21.7514C328.209 21.8351 328.616 21.9338 328.927 22.0473C329.231 22.1616 329.447 22.3188 329.573 22.5149L329.758 23.1534V49.1554H333.087C334.935 49.1554 336.552 48.9192 337.94 48.4444C339.326 47.9703 340.551 46.6061 341.615 45.6547C342.68 44.7062 356.359 24.2947 356.359 24.2947C356.981 23.119 357.726 22.8112 358.071 22.771C358.77 22.6878 364.273 22.5431 364.565 22.6722C364.862 22.8046 365.052 22.9679 365.144 23.1654L365.351 24.0524C365.351 24.4152 365.351 25.4714 364.683 26.6049C364.683 26.6049 350.452 47.0188 349.59 48.0504C348.728 49.0824 347.789 49.935 346.773 50.6063C345.753 51.2776 344.614 51.8103 343.348 52.2049V52.3036C344.798 52.8604 346.086 53.507 347.21 54.2433C348.334 54.9825 349.375 55.8901 350.329 56.9721C351.287 58.0526 352.165 59.3552 352.965 60.8791C353.766 62.4041 365.101 81.6997 365.101 81.6997C365.499 82.5248 365.847 82.9499 365.908 83.2947C365.97 83.6369 366 83.9418 366 84.2033Z" fill="#2A3892"/>
<path d="M572.848 179.526L572.645 180.247C572.509 180.454 572.272 180.617 571.934 180.736C571.595 180.857 571.148 180.958 570.588 181.044C570.031 181.131 569.344 181.174 568.531 181.174C567.65 181.174 566.939 181.131 566.397 181.044C565.855 180.958 565.414 180.857 565.075 180.736C564.736 180.617 564.5 180.454 564.363 180.247L564.161 179.526V150H534.244V179.526L534.04 180.247C533.902 180.454 533.665 180.617 533.328 180.736C532.99 180.857 532.54 180.958 531.98 181.044C531.423 181.131 530.72 181.174 529.873 181.174C529.061 181.174 528.368 181.131 527.793 181.044C527.216 180.958 526.757 180.857 526.419 180.736C526.08 180.617 525.843 180.454 525.707 180.247L525.504 179.526V115.643L525.707 114.922C525.843 114.716 526.08 114.552 526.419 114.433C526.757 114.312 527.216 114.211 527.793 114.124C528.368 114.038 529.061 113.995 529.873 113.995C530.72 113.995 531.423 114.038 531.98 114.124C532.54 114.211 532.99 114.312 533.328 114.433C533.665 114.552 533.902 114.716 534.04 114.922L534.244 115.643V142.286H564.161V115.643L564.363 114.922C564.5 114.716 564.736 114.552 565.075 114.433C565.414 114.312 565.855 114.211 566.397 114.124C566.939 114.038 567.65 113.995 568.531 113.995C569.344 113.995 570.031 114.038 570.588 114.124C571.148 114.211 571.595 114.312 571.934 114.433C572.272 114.552 572.509 114.716 572.645 114.922L572.848 115.643V179.526Z" fill="#2A3892"/>
<path d="M53.8855 181.485C52.7621 181.485 52.1117 181.445 51.9922 181.436L52.3646 176.013C52.5001 176.018 66.4592 176.826 86.208 169.207C99.9084 163.923 144.62 142.763 144.62 92.4017C144.62 48.479 116.836 26.514 93.5342 15.8215C71.6265 5.77051 52.426 6.0718 52.2381 6.07891L52.1186 0.642821C52.9558 0.626821 72.7694 0.310221 95.8004 10.8789C120.55 22.2366 150.054 45.5966 150.054 92.4017C150.054 113.127 143.012 131.429 129.123 146.792C118.663 158.368 104.115 168.13 88.1632 174.282C71.2818 180.796 58.5328 181.485 53.8855 181.485Z" fill="#2A3892"/>
<path d="M57.6972 170.606C56.7331 170.606 56.1692 170.568 56.0684 170.562L56.4468 165.14C56.5603 165.146 68.358 165.835 84.1468 159.255C92.6548 155.71 135.102 135.761 135.102 91.208C135.102 58.2146 112.299 31.3771 74.1078 19.4257L75.7306 14.2361C93.9267 19.9302 109.487 29.2923 120.734 41.3046C133.877 55.3472 140.541 72.1369 140.541 91.208C140.541 128.396 112.49 153.334 86.2381 164.275C72.5064 169.999 61.6758 170.606 57.6972 170.606Z" fill="#3E7ABC"/>
<path d="M60.4435 160.62L60.2705 155.184C60.4067 155.183 74.3562 154.628 89.6552 147.061C100.738 141.579 126.517 125.095 126.517 90.4476C126.517 52.7118 90.5576 35.3154 90.1944 35.1437L92.513 30.2256C92.9196 30.4167 102.521 35.0049 112.215 44.6801C125.128 57.5717 131.955 73.3969 131.955 90.4476C131.955 128.144 104.058 146.005 92.067 151.935C75.6558 160.05 61.0563 160.601 60.4435 160.62Z" fill="#62A6D5"/>
<path d="M35.5637 6.7576H14.1152V1.31956H35.5637V6.7576Z" fill="#56A2D9"/>
<path d="M26.973 22.6541H5.52441V17.2155H26.973V22.6541Z" fill="#56A2D9"/>
<path d="M21.4485 41.3001H0V34.5034H21.4485V41.3001Z" fill="#56A2D9"/>
<path d="M21.4485 58.9734H0V50.8158H21.4485V58.9734Z" fill="#56A2D9"/>
<path d="M26.8837 75.9659H5.43555V67.8082H26.8837V75.9659Z" fill="#3975BA"/>
<path d="M35.0423 92.958H13.5938V84.8004H35.0423V92.958Z" fill="#3975BA"/>
<path d="M43.8773 109.951H22.4287V101.793H43.8773V109.951Z" fill="#3975BA"/>
<path d="M48.6341 127.623H27.1855V118.109H48.6341V127.623Z" fill="#3975BA"/>
<path d="M48.6341 145.294H27.1855V135.778H48.6341V145.294Z" fill="#3975BA"/>
<path d="M43.8773 162.967H22.4287V152.09H43.8773V162.967Z" fill="#323E86"/>
<path d="M35.1858 180.64H13.7373V169.763H35.1858V180.64Z" fill="#323E86"/>
</svg>
